<?xml version="1.0" standalone="no"?>
<!DOCTYPE svg PUBLIC "-//W3C//DTD SVG 20010904//EN"
 "http://www.w3.org/TR/2001/REC-SVG-20010904/DTD/svg10.dtd">
<svg version="1.0" xmlns="http://www.w3.org/2000/svg"
 width="512.000000pt" height="512.000000pt" viewBox="0 0 512.000000 512.000000"
 preserveAspectRatio="xMidYMid meet">

<g transform="translate(0.000000,512.000000) scale(0.100000,-0.100000)"
fill="#000000" stroke="none">
<path d="M109 4737 c-24 -13 -57 -43 -74 -66 l-30 -43 -3 -487 c-2 -467 -2
-489 16 -512 27 -32 87 -32 113 0 18 22 19 49 19 486 0 435 1 463 18 478 17
16 179 17 2124 17 2043 0 2106 1 2129 19 32 26 32 86 0 112 -23 18 -87 19
-2146 19 l-2122 0 -44 -23z"/>
<path d="M4625 4736 c-32 -32 -32 -70 0 -101 23 -24 29 -25 168 -25 127 0 146
-2 160 -18 16 -17 17 -86 17 -794 0 -738 -1 -776 -18 -791 -17 -16 -110 -17
-1139 -17 l-1120 0 -7 72 c-10 101 -39 169 -94 226 -71 72 -129 96 -232 97
-73 0 -93 -4 -141 -28 -66 -32 -132 -100 -161 -164 -12 -27 -22 -78 -25 -124
l-6 -79 -922 0 c-880 0 -923 1 -938 18 -15 16 -17 46 -17 206 0 185 0 187 -25
211 -31 32 -69 32 -101 0 l-25 -26 3 -213 c3 -211 3 -213 30 -253 15 -22 44
-51 65 -64 l38 -24 948 -3 947 -2 0 -440 c0 -517 9 -484 -111 -423 -66 34 -80
37 -153 37 -146 -1 -257 -68 -313 -190 -22 -49 -25 -66 -21 -138 5 -94 30
-159 94 -252 71 -105 404 -515 463 -570 l55 -53 6 -153 c6 -167 12 -188 72
-245 67 -64 52 -63 650 -63 606 0 586 -2 655 71 54 57 63 93 63 244 0 153 6
174 68 249 54 65 97 147 116 222 22 85 23 513 1 594 -50 189 -204 349 -395
412 -58 19 -94 22 -327 26 l-263 4 0 334 0 334 1148 2 1148 3 41 27 c22 15 51
44 64 65 l24 38 3 816 2 815 -23 45 c-13 24 -43 58 -66 74 l-43 30 -169 3
-169 3 -25 -25z m-2208 -1507 c38 -14 83 -57 99 -96 11 -26 14 -126 14 -506 0
-261 3 -489 6 -507 4 -18 22 -47 40 -65 l33 -33 288 -4 c258 -4 294 -7 346
-25 139 -49 242 -156 282 -295 13 -47 16 -96 13 -285 -4 -265 -11 -294 -99
-405 -89 -111 -93 -121 -99 -306 -5 -157 -6 -165 -29 -183 -22 -18 -46 -19
-543 -19 l-519 0 -24 25 c-24 23 -25 30 -25 143 0 167 -14 207 -100 297 -105
108 -457 553 -486 615 -50 104 -43 183 22 240 66 58 147 61 239 9 28 -15 69
-31 92 -35 78 -12 160 34 194 111 17 37 19 79 19 613 0 609 0 612 48 666 41
46 130 67 189 45z"/>
<path d="M445 4274 c-46 -13 -45 -7 -45 -409 0 -351 1 -383 18 -398 43 -39
135 -27 153 20 5 13 9 83 9 154 l0 130 36 -3 c36 -3 38 -4 113 -149 42 -80 82
-154 90 -163 26 -32 117 -10 141 33 18 35 11 56 -59 182 -69 124 -69 124 -48
139 85 58 125 146 113 249 -13 106 -67 173 -161 200 -43 12 -327 24 -360 15z
m316 -183 c22 -23 29 -39 29 -70 0 -86 -31 -111 -140 -111 l-70 0 0 105 0 105
76 0 c70 0 78 -2 105 -29z"/>
<path d="M1115 4269 c-55 -16 -55 -13 -55 -410 0 -346 1 -368 19 -390 19 -24
21 -24 245 -27 l226 -3 25 25 c33 33 33 79 0 111 -24 24 -28 25 -180 25 l-155
0 0 95 0 95 93 0 c108 0 127 11 127 73 0 54 -25 67 -132 67 l-88 0 0 95 0 95
159 0 c132 0 162 3 175 16 38 38 30 109 -14 131 -29 15 -397 17 -445 2z"/>
<path d="M1837 4266 c-112 -31 -177 -112 -177 -219 0 -113 48 -174 190 -244
111 -54 150 -81 161 -110 13 -35 3 -61 -34 -84 -55 -33 -130 -20 -203 36 -45
34 -87 33 -113 -4 -33 -47 -28 -88 18 -131 105 -100 326 -105 435 -9 54 48 77
103 77 185 0 122 -57 195 -210 267 -120 57 -141 73 -141 106 0 65 99 91 200
52 71 -27 84 -26 109 5 22 28 27 74 11 103 -25 48 -220 76 -323 47z"/>
<path d="M2340 4270 c-61 -15 -60 -8 -60 -411 0 -346 1 -368 19 -390 19 -24
21 -24 245 -27 l226 -3 25 25 c33 33 33 79 0 111 -24 24 -28 25 -180 25 l-155
0 0 95 0 95 93 0 c108 0 127 11 127 73 0 54 -25 67 -132 67 l-88 0 0 95 0 95
158 0 c179 0 190 4 199 66 4 30 0 45 -15 64 l-20 25 -204 2 c-111 1 -219 -2
-238 -7z"/>
<path d="M2943 4274 c-12 -3 -26 -11 -32 -18 -8 -9 -10 -134 -9 -402 l3 -389
41 -14 c36 -13 47 -13 80 0 l39 15 3 152 3 152 38 0 39 0 77 -147 c43 -82 84
-156 93 -165 33 -38 135 -4 148 49 7 27 -7 59 -90 209 l-46 81 39 26 c77 51
110 148 90 265 -10 58 -17 71 -58 112 -34 34 -60 50 -96 59 -51 13 -322 24
-362 15z m319 -182 c18 -18 23 -34 23 -78 0 -49 -4 -59 -28 -80 -25 -21 -38
-24 -108 -24 l-79 0 0 106 0 106 85 -3 c72 -3 88 -7 107 -27z"/>
<path d="M4288 4273 c-57 -9 -58 -13 -58 -414 0 -346 1 -368 19 -390 19 -24
21 -24 245 -27 l226 -3 26 26 c22 22 25 32 20 63 -10 66 -28 72 -202 72 l-154
0 0 95 0 95 93 0 c106 0 127 11 127 68 0 57 -27 72 -130 72 l-90 0 0 95 0 95
159 0 c132 0 162 3 175 16 37 37 29 109 -15 131 -23 12 -371 17 -441 6z"/>
<path d="M3560 4263 c-29 -11 -50 -36 -50 -61 0 -22 171 -595 206 -690 10 -27
26 -48 44 -57 41 -21 118 -19 156 4 28 17 36 37 137 372 59 195 107 364 107
377 0 49 -136 88 -159 45 -5 -10 -41 -137 -80 -283 -85 -314 -82 -302 -86
-298 -2 2 -38 130 -81 283 -42 154 -80 288 -85 298 -7 12 -21 17 -52 16 -23 0
-49 -3 -57 -6z"/>
</g>
</svg>
